# xmcd
#
# Track frame offsets:
#	150
#	18365
#	32355
#	47912
#	65577
#	82247
#	99542
#	119652
#	137352
#	156617
#	170302
#	194487
#	210242
#	228220
#	246525
#
# Disc length: 3486 seconds
#
# Revision: 1
# Processed by: cddbd v1.5.1PL0 Copyright (c) Steve Scherf et al.
# Submitted via: CDex 1.50Beta5
#
DISCID=d00d9c0f
DTITLE=H2O - 夏色の雫〜H2Oベスト・セレクション〜
DYEAR=2001
DGENRE=
TTITLE0=想い出がいっぱい
TTITLE1=僕等のダイアリー
TTITLE2=泣かないでLittle Bird
TTITLE3=夏の海図
TTITLE4=風のロマンス
TTITLE5=恋の冒険小説
TTITLE6=サマードリーム
TTITLE7=10%の雨予報
TTITLE8=PASSING RAIN
TTITLE9=想い出を風に乗せて
TTITLE10=ブルーベリーの頃
TTITLE11=ジョバンニ
TTITLE12=振り向けばBroken Heart
TTITLE13=Good-byeシーズン
TTITLE14=ローレライ
EXTD=
EXTT0=
EXTT1=
EXTT2=
EXTT3=
EXTT4=
EXTT5=
EXTT6=
EXTT7=
EXTT8=
EXTT9=
EXTT10=
EXTT11=
EXTT12=
EXTT13=
EXTT14=
PLAYORDER=
